<svg xmlns="http://www.w3.org/2000/svg" width="105" height="53" viewBox="0 0 105 53">
    <path fill="#1ab2b1" d="M7.074 38.7a1.095 1.095 0 0 1-.363-.84v-4.864c0-.373.12-.672.364-.894.242-.225.532-.337.867-.337h4.53c2.238 0 4.288-.55 6.153-1.65a12.386 12.386 0 0 0 4.446-4.445c1.098-1.865 1.65-3.915 1.65-6.152s-.552-4.287-1.65-6.152a12.4 12.4 0 0 0-4.447-4.446c-1.865-1.1-3.915-1.65-6.15-1.65h-4.53a.647.647 0 0 0-.477.196.646.646 0 0 0-.196.475v3.413c0 .336-.122.615-.363.84a1.24 1.24 0 0 1-.867.335H1.175c-.3 0-.57-.12-.81-.364-.245-.242-.365-.512-.365-.81V1.23C0 .895.12.607.364.364.606.122.876 0 1.174 0h11.298c3.54 0 6.803.877 9.786 2.628A19.666 19.666 0 0 1 29.36 9.73c1.753 2.984 2.63 6.246 2.63 9.788 0 3.543-.877 6.805-2.63 9.787a19.66 19.66 0 0 1-7.102 7.102c-2.983 1.753-6.245 2.63-9.786 2.63h-4.53c-.336 0-.626-.113-.868-.337zM47.145 38.756v-5.76c0-.26.13-.392.39-.392h9.23c1.34 0 2.47-.484 3.382-1.454.914-.97 1.37-2.124 1.37-3.467 0-1.342-.466-2.47-1.398-3.384-.933-.913-2.05-1.37-3.356-1.37h-7.047c-.373 0-.56-.187-.56-.56v-5.816c0-.075.038-.158.113-.252a.346.346 0 0 1 .28-.14h3.13c1.27 0 2.36-.466 3.273-1.398.914-.93 1.37-2.032 1.37-3.3 0-1.304-.466-2.422-1.398-3.355-.933-.933-2.05-1.4-3.356-1.4h-4.027a1.93 1.93 0 0 0-1.37.56 1.79 1.79 0 0 0-.588 1.343v1.453a.346.346 0 0 1-.14.28c-.093.075-.177.112-.25.112h-4.867c-.298 0-.447-.13-.447-.392V.392c0-.26.15-.392.448-.392H52.57c2.088 0 4.007.513 5.76 1.538a11.465 11.465 0 0 1 4.168 4.166c1.024 1.753 1.537 3.673 1.537 5.76 0 2.163-.597 4.195-1.79 6.097a11.743 11.743 0 0 1 4.42 4.28 11.2 11.2 0 0 1 1.62 5.843c0 2.088-.513 4.01-1.537 5.76a11.382 11.382 0 0 1-4.195 4.166c-1.77 1.025-3.7 1.538-5.788 1.538h-9.228c-.26 0-.39-.13-.39-.392zM77.148 38.84a.96.96 0 0 1-.307-.7V12.305c0-.298.103-.54.308-.727a1.01 1.01 0 0 1 .7-.28H82.6c.298 0 .54.093.727.28.187.187.28.43.28.727v4.026c0 .71.484 1.064 1.454 1.064h14.094c.26 0 .484.084.67.252.187.168.28.382.28.642v4.81a.826.826 0 0 1-.28.643.97.97 0 0 1-.67.253h-14.26c-.86 0-1.286.39-1.286 1.174v6.096c0 .262.11.503.336.727.223.224.465.335.726.335h19.238c.298 0 .54.094.727.28.187.187.28.43.28.727v4.81c0 .26-.093.494-.28.7a.937.937 0 0 1-.727.307h-26.06a.96.96 0 0 1-.7-.31zm0-32.268a1.024 1.024 0 0 1-.307-.756v-4.81c0-.297.103-.54.308-.726a1.01 1.01 0 0 1 .7-.28h25.948c.298 0 .55.103.756.308a.968.968 0 0 1 .307.7v4.81c0 .26-.104.502-.308.726a.985.985 0 0 1-.756.334H77.848a.964.964 0 0 1-.7-.306z"/>
    <g>
        <path fill="#1ab2b1" d="M35.612 50.6l.68-3.062.527 2.366zm2.016-.323l-.165-.744-.807-3.63h-.727l-1.152 5.18-.09.402-.213.96h.727l.196-.88 1.585-.916.4 1.796h.727zM43.084 47.724v-.362a.725.725 0 1 0-1.45 0v3.625a.725.725 0 0 0 1.45 0v-.363h.726v.363a1.45 1.45 0 0 1-2.9 0v-3.625a1.45 1.45 0 0 1 2.9 0v.362zM47.745 50.6l.68-3.062.527 2.366zm2.017-.323l-.165-.744-.808-3.63h-.727l-1.152 5.18-.088.402-.214.96h.727l.196-.88 1.587-.916.4 1.796h.726zM55.218 50.987c0 .4-.325.724-.725.724h-.724v-5.073h.723c.4 0 .725.325.725.725zm.725-3.625a1.45 1.45 0 0 0-1.45-1.45h-1.45v6.524h1.45c.8 0 1.45-.65 1.45-1.45zM59.466 46.637v2.175h1.45v.724h-1.45v2.175h2.175v.726h-2.9v-6.524h2.9v.725zM68.064 45.915v6.523h-.726V47.86v.005l-1.07 2.72-.008-.02-.006.015-1.09-2.713v4.57h-.725v-6.522h.724l1.087 2.718.004.005 1.07-2.725.727-.004v.005zM73.586 45.932l.888-.003-1.363 3.23-.073.175v3.11h-.723v-3.104l-.074-.172-1.376-3.24.895.004.89 2.13h.05z"/>
    </g>
</svg>